<svg xmlns="http://www.w3.org/2000/svg" viewBox="0 0 512 512"><linearGradient id="a" gradientUnits="userSpaceOnUse" x1="261.034" y1="14.069" x2="261.034" y2="349.535" gradientTransform="rotate(17.326 16.943 202.693)"><stop offset="0" stop-color="#fdd900"/><stop offset="1" stop-color="#e29f25"/></linearGradient><circle cx="256.2" cy="255.4" r="167.7" fill-rule="evenodd" clip-rule="evenodd" fill="url(#a)"/><linearGradient id="b" gradientUnits="userSpaceOnUse" x1="417.153" y1="-7.999" x2="417.153" y2="60.525" gradientTransform="rotate(17.326 16.943 202.693)"><stop offset="0" stop-color="#fdd900"/><stop offset="1" stop-color="#e6a323"/></linearGradient><path d="M487.1 134.8c-5.1-9.8-17.3-13.6-27.1-8.5L424.4 145c-9.8 5.1-13.6 17.3-8.5 27.1s17.3 13.6 27.1 8.5l35.6-18.6c9.8-5.2 13.6-17.4 8.5-27.2z" fill-rule="evenodd" clip-rule="evenodd" fill="url(#b)"/><linearGradient id="c" gradientUnits="userSpaceOnUse" x1="104.916" y1="304.238" x2="104.916" y2="372.762" gradientTransform="rotate(17.326 16.943 202.693)"><stop offset="0" stop-color="#fdd900"/><stop offset="1" stop-color="#e6a323"/></linearGradient><path d="M96 339.9c-5.1-9.8-17.3-13.6-27.1-8.5L33.3 350c-9.8 5.1-13.6 17.3-8.5 27.1s17.3 13.6 27.1 8.5L87.6 367c9.8-5.2 13.6-17.3 8.4-27.1z" fill-rule="evenodd" clip-rule="evenodd" fill="url(#c)"/><linearGradient id="d" gradientUnits="userSpaceOnUse" x1="481.814" y1="162.293" x2="481.814" y2="202.432" gradientTransform="rotate(17.326 16.943 202.693)"><stop offset="0" stop-color="#fdd900"/><stop offset="1" stop-color="#e6a323"/></linearGradient><path d="M505.1 333.7c3.3-10.6-2.6-21.8-13.2-25.1l-38.3-12c-10.6-3.3-21.8 2.6-25.1 13.2-3.3 10.6 2.6 21.8 13.2 25.1l38.3 12c10.5 3.3 21.8-2.6 25.1-13.2z" fill-rule="evenodd" clip-rule="evenodd" fill="url(#d)"/><linearGradient id="e" gradientUnits="userSpaceOnUse" x1="40.254" y1="162.331" x2="40.254" y2="202.47" gradientTransform="rotate(17.326 16.943 202.693)"><stop offset="0" stop-color="#fdd900"/><stop offset="1" stop-color="#e6a323"/></linearGradient><path d="M83.6 202.2c3.3-10.6-2.6-21.8-13.2-25.1l-38.3-12c-10.6-3.3-21.8 2.6-25.1 13.2-3.3 10.6 2.6 21.8 13.2 25.1l38.3 12c10.5 3.3 21.7-2.6 25.1-13.2z" fill-rule="evenodd" clip-rule="evenodd" fill="url(#e)"/><linearGradient id="f" gradientUnits="userSpaceOnUse" x1="104.916" y1="-7.999" x2="104.916" y2="60.525" gradientTransform="rotate(17.326 16.943 202.693)"><stop offset="0" stop-color="#fdd900"/><stop offset="1" stop-color="#e6a323"/></linearGradient><path d="M134.8 24.9C125 30 121.2 42.2 126.3 52L145 87.6c5.1 9.8 17.3 13.6 27.1 8.5s13.6-17.3 8.5-27.1L162 33.4c-5.2-9.8-17.4-13.6-27.2-8.5z" fill-rule="evenodd" clip-rule="evenodd" fill="url(#f)"/><linearGradient id="g" gradientUnits="userSpaceOnUse" x1="417.153" y1="304.238" x2="417.153" y2="372.762" gradientTransform="rotate(17.326 16.943 202.693)"><stop offset="0" stop-color="#fdd900"/><stop offset="1" stop-color="#e6a323"/></linearGradient><path d="M339.9 416c-9.8 5.1-13.6 17.3-8.5 27.1l18.6 35.6c5.1 9.8 17.3 13.6 27.1 8.5s13.6-17.3 8.5-27.1L367 424.4c-5.2-9.8-17.3-13.6-27.1-8.4z" fill-rule="evenodd" clip-rule="evenodd" fill="url(#g)"/><linearGradient id="h" gradientUnits="userSpaceOnUse" x1="261.053" y1="363.023" x2="261.053" y2="443.3" gradientTransform="rotate(17.326 16.943 202.693)"><stop offset="0" stop-color="#fdd900"/><stop offset="1" stop-color="#e6a323"/></linearGradient><path d="M178.3 505.1c10.6 3.3 21.8-2.6 25.1-13.2l12-38.3c3.3-10.6-2.6-21.8-13.2-25.1-10.6-3.3-21.8 2.6-25.1 13.2l-12 38.3c-3.3 10.5 2.6 21.8 13.2 25.1z" fill-rule="evenodd" clip-rule="evenodd" fill="url(#h)"/><linearGradient id="i" gradientUnits="userSpaceOnUse" x1="261.015" y1="-78.537" x2="261.015" y2="1.74" gradientTransform="rotate(17.326 16.943 202.693)"><stop offset="0" stop-color="#fdd900"/><stop offset="1" stop-color="#e6a323"/></linearGradient><path d="M309.8 83.6c10.6 3.3 21.8-2.6 25.1-13.2l12-38.3c3.3-10.6-2.6-21.8-13.2-25.1s-21.8 2.6-25.1 13.2l-12 38.3c-3.3 10.5 2.6 21.7 13.2 25.1z" fill-rule="evenodd" clip-rule="evenodd" fill="url(#i)"/><path d="M248.7 422.5c43.6 1.4 93.8-14.3 123.7-47.2-31.8 16.3-73.6 35.4-121.5 33.9-47.9-1.5-73.3-12.5-100-24.4 22.2 18 53.6 36.3 97.8 37.7z" opacity=".5" fill="#d58128"/><path d="M263.3 86.3c-43.1-1.4-92.8 14.4-122.4 47.2 31.5-16.3 72.8-35.4 120.1-33.9s72.5 12.5 98.9 24.4C338 105.9 307 87.6 263.3 86.3z" opacity=".2" fill="#d58128"/></svg>