<svg version="1.1" id="Layer_1" xmlns="http://www.w3.org/2000/svg" x="0" y="0" viewBox="0 0 512 512" xml:space="preserve"><style>.st2,.st3{opacity:.5;fill:#d58128}.st3{opacity:.3}</style><g id="XMLID_268_"><linearGradient id="XMLID_2_" gradientUnits="userSpaceOnUse" x1="197.782" y1="724.031" x2="695.642" y2="724.031" gradientTransform="rotate(80.671 626.931 377.735)"><stop offset="0" stop-color="#fdd900"/><stop offset=".775" stop-color="#e29f25"/></linearGradient><path id="XMLID_407_" d="M295.5 501.3c-66.3 16.5-136-12.4-186.1-51.4-51.2-40.6-82.9-91.4-98.7-154.3-16.5-66.3 12.4-136 51.4-186.1 40.6-51.2 91.4-82.9 154.3-98.7 66.3-16.5 136 12.4 186 51.4 51.2 40.6 82.9 91.4 98.7 154.3 16.5 66.3-12.4 136-51.4 186.1-40.4 51.1-91.2 82.8-154.2 98.7z" fill="url(#XMLID_2_)"/><path id="XMLID_404_" d="M240.7 225.2c-15.1 21.4-49.6 20-47.7-6.9 1.6-21.9 13.7-50 38.4-47 27.3 3.5 24.1 32.9 9.3 53.9z" opacity=".4" fill="#d58128"/><path id="XMLID_403_" class="st2" d="M151.1 363.7c-5.2 9.6-20.3 9.5-20.9-2.3-.4-9.5 3.9-21.5 14.5-20.4 11.8 1.3 11.5 13.4 6.4 22.7z"/><path id="XMLID_353_" class="st3" d="M326.9 261.1c-5.7 8.1-20.4 6.4-20.3-4.1 0-8.5 4.6-18.8 14.8-17 11.5 2.1 11 13.2 5.5 21.1z"/><path id="XMLID_352_" class="st3" d="M260.7 371.6c7.1-30.7 52.1-37.6 65.5-6 10.8 25.8 13.7 63.3-19.6 68.8-37.5 6.1-53-32.7-45.9-62.8z"/><path id="XMLID_348_" class="st3" d="M289.9 88c2-15.4 21.9-21.7 28.5-5.2 5.3 13.3 5 31.5-9.3 33.9-15.8 2.8-21.1-13.7-19.2-28.7z"/><path id="XMLID_343_" class="st3" d="M400.2 260.9c4-13.3 26.1-20.3 32.1-7 4.9 10.9 4 27.3-12.7 30.9-18.5 3.9-23.3-10.8-19.4-23.9z"/><path id="XMLID_339_" class="st2" d="M71.9 177.2c6.1-23.9 38.4-34.4 45.9-11.3 6.2 18.7 3.4 44.8-19.2 51.2-25.4 7.5-32.6-16.6-26.7-39.9z"/><path id="XMLID_338_" class="st2" d="M263 503.4c58.4-3.7 116.1-28 152.2-64.8-42.4 18.9-90.5 43.6-153.5 46.7-63.1 2.6-98.9-9.9-134.8-22 30.4 20.7 76.9 43.5 136.1 40.1z"/><path id="XMLID_337_" d="M56.9 127.5c70-87.6 171.5-139 290.3-89.6 29.4 13.2 54.4 31.3 75.2 51 7.4 4.2 14.6 8.5 21.6 12.8-24.7-29-57-56.8-98.1-75.4C279-4.5 216 4.5 163.4 28.7 110.4 54.1 67.9 94.8 32.8 156c7.5-10.3 15.6-19.8 24.1-28.5z" opacity=".5" fill="#ffcc05"/></g></svg>