<svg version="1.1" id="Layer_1" xmlns="http://www.w3.org/2000/svg" x="0" y="0" viewBox="0 0 512 512" xml:space="preserve"><style>.st2,.st3{opacity:.5;fill:#d58128;enable-background:new}.st3{opacity:.3}.st5{fill:#bec6d2}</style><g id="XMLID_268_"><linearGradient id="XMLID_2_" gradientUnits="userSpaceOnUse" x1="179.929" y1="827.444" x2="432.986" y2="827.444" gradientTransform="rotate(80.671 627.931 378.735)"><stop offset="0" stop-color="#feda00"/><stop offset=".775" stop-color="#e2a025"/></linearGradient><path id="XMLID_407_" d="M153.2 258.9c-33.7 8.4-69.1-6.3-94.6-26.1-26-20.6-42.1-46.5-50.2-78.4-8.4-33.7 6.3-69.1 26.1-94.6 20.6-26 46.5-42.1 78.4-50.2 33.7-8.4 69.1 6.3 94.6 26.1 26 20.6 42.1 46.4 50.2 78.4 8.4 33.7-6.3 69.1-26.1 94.6-20.6 26-46.4 42.1-78.4 50.2z" fill="url(#XMLID_2_)"/><path id="XMLID_404_" d="M125.4 118.6c-7.7 10.9-25.2 10.2-24.3-3.5.8-11.1 7-25.4 19.5-23.9 13.9 1.8 12.3 16.7 4.8 27.4z" opacity=".4" fill="#d58128"/><path id="XMLID_403_" class="st2" d="M79.8 189c-2.7 4.9-10.3 4.8-10.6-1.1-.2-4.9 2-10.9 7.4-10.4 6 .6 5.8 6.7 3.2 11.5z"/><path id="XMLID_353_" class="st3" d="M169.2 136.8c-2.9 4.1-10.4 3.2-10.3-2.1 0-4.3 2.3-9.6 7.5-8.6 5.8 1 5.6 6.7 2.8 10.7z"/><path id="XMLID_352_" class="st3" d="M135.5 193c3.6-15.6 26.5-19.1 33.3-3.1 5.5 13.1 7 32.2-10 35-19 3.1-26.9-16.6-23.3-31.9z"/><path id="XMLID_348_" class="st3" d="M150.4 48.8c1-7.8 11.1-11 14.5-2.6 2.7 6.8 2.5 16-4.7 17.2-8.1 1.4-10.8-6.9-9.8-14.6z"/><path id="XMLID_343_" class="st3" d="M206.5 136.7c2-6.8 13.2-10.3 16.3-3.5 2.5 5.5 2 13.9-6.5 15.7-9.4 1.9-11.8-5.5-9.8-12.2z"/><path id="XMLID_339_" class="st2" d="M39.6 94.2c3.1-12.2 19.5-17.5 23.3-5.7 3.1 9.5 1.7 22.7-9.7 26-13 3.8-16.6-8.5-13.6-20.3z"/><path id="XMLID_338_" class="st2" d="M136.7 260c29.7-1.9 59-14.2 77.3-32.9-21.6 9.6-46 22.2-78 23.7-32.1 1.3-50.3-5-68.5-11.2 15.5 10.5 39.1 22.1 69.2 20.4z"/><path id="XMLID_337_" d="M32 68.9c35.6-44.5 87.1-70.7 147.5-45.5 14.9 6.7 27.7 15.9 38.2 25.9 3.8 2.1 7.4 4.3 11 6.5-12.6-14.7-29-28.9-49.9-38.3-34-15.7-66-11.1-92.8 1.2-26.8 12.9-48.5 33.6-66.3 64.7 3.8-5.2 7.9-10.1 12.3-14.5z" opacity=".5" fill="#ffcd05"/></g><g id="XMLID_78_"><path id="XMLID_637_" class="st5" d="M416.7 177.4c-12 0-23.5 2.5-34 6.8C359.1 138 311.5 106 256 106s-103.1 32-126.7 78.2c-10.5-4.3-21.9-6.8-34-6.8-49.3 0-89.3 40-89.3 89.3S46 356 95.3 356c19.1 0 36.8-6.1 51.3-16.4 26.2 31.6 65.2 52.1 109.4 52.1s83.2-20.5 109.4-52.1c14.5 10.2 32.2 16.4 51.3 16.4 49.3 0 89.3-40 89.3-89.3s-40-89.3-89.3-89.3z"/><path id="XMLID_636_" d="M267.8 254.6c-96.2-9.7-186.3 3.7-257.5 33.7 8.9 40 44.5 69.9 87.1 69.9 19.1 0 36.8-6.1 51.3-16.4 26.2 31.6 65.2 52.1 109.4 52.1s83.2-20.5 109.4-52.1c14.5 10.2 32.2 16.4 51.3 16.4 28.6 0 54-13.5 70.4-34.5-60.6-35.4-136.9-60.6-221.4-69.1z" opacity=".05" fill="#a7a9ac"/><path id="XMLID_635_" d="M416.7 191.7c-12 0-23.5 2.5-34 6.8-23.7-46.2-71.2-78.2-126.7-78.2s-103.1 32-126.7 78.2c-10.5-4.3-21.9-6.8-34-6.8C46 191.7 6 231.7 6 281s40 89.3 89.3 89.3c19.1 0 36.8-6.1 51.3-16.4C172.8 385.5 211.8 406 256 406s83.2-20.5 109.4-52.1c14.5 10.2 32.2 16.4 51.3 16.4 49.3 0 89.3-40 89.3-89.3s-40-89.3-89.3-89.3z" fill="#d3dee2"/><path id="XMLID_541_" class="st5" d="M156.2 247.5c7.5 0 14.5 1.5 21 4.2 14.6-28.6 44-48.3 78.3-48.3s63.7 19.8 78.3 48.3c6.5-2.7 13.6-4.2 21-4.2 27.9 0 50.9 20.7 54.6 47.6.3-2.5.6-5 .6-7.5 0-30.5-24.7-55.2-55.2-55.2-7.4 0-14.5 1.5-21 4.2-14.6-28.6-44-48.3-78.3-48.3s-63.7 19.8-78.3 48.3c-6.5-2.7-13.5-4.2-21-4.2-30.5 0-55.2 24.7-55.2 55.2 0 2.6.2 5.1.6 7.5 3.6-26.9 26.6-47.6 54.6-47.6z"/></g></svg>