<svg version="1.1" id="Layer_1" xmlns="http://www.w3.org/2000/svg" x="0" y="0" viewBox="0 0 512 512" xml:space="preserve"><style>.st0{fill:#bec6d2}.st3{fill:#00adee}</style><g id="XMLID_78_"><path id="XMLID_637_" class="st0" d="M416.7 177.4c-12 0-23.5 2.5-34 6.8C359.1 138 311.5 106 256 106s-103.1 32-126.7 78.2c-10.5-4.3-21.9-6.8-34-6.8-49.3 0-89.3 40-89.3 89.3S46 356 95.3 356c19.1 0 36.8-6.1 51.3-16.4 26.2 31.6 65.2 52.1 109.4 52.1s83.2-20.5 109.4-52.1c14.5 10.2 32.2 16.4 51.3 16.4 49.3 0 89.3-40 89.3-89.3s-40-89.3-89.3-89.3z"/><path id="XMLID_636_" d="M267.8 254.6c-96.2-9.7-186.3 3.7-257.5 33.7 8.9 40 44.5 69.9 87.1 69.9 19.1 0 36.8-6.1 51.3-16.4 26.2 31.6 65.2 52.1 109.4 52.1s83.2-20.5 109.4-52.1c14.5 10.2 32.2 16.4 51.3 16.4 28.6 0 54-13.5 70.4-34.5-60.6-35.4-136.9-60.6-221.4-69.1z" opacity=".05" fill="#a7a9ac"/><path id="XMLID_635_" d="M416.7 191.7c-12 0-23.5 2.5-34 6.8-23.7-46.2-71.2-78.2-126.7-78.2s-103.1 32-126.7 78.2c-10.5-4.3-21.9-6.8-34-6.8C46 191.7 6 231.7 6 281s40 89.3 89.3 89.3c19.1 0 36.8-6.1 51.3-16.4C172.8 385.5 211.8 406 256 406s83.2-20.5 109.4-52.1c14.5 10.2 32.2 16.4 51.3 16.4 49.3 0 89.3-40 89.3-89.3s-40-89.3-89.3-89.3z" fill="#d3dee2"/><path id="XMLID_541_" class="st0" d="M156.2 247.5c7.5 0 14.5 1.5 21 4.2 14.6-28.6 44-48.3 78.3-48.3s63.7 19.8 78.3 48.3c6.5-2.7 13.6-4.2 21-4.2 27.9 0 50.9 20.7 54.6 47.6.3-2.5.6-5 .6-7.5 0-30.5-24.7-55.2-55.2-55.2-7.4 0-14.5 1.5-21 4.2-14.6-28.6-44-48.3-78.3-48.3s-63.7 19.8-78.3 48.3c-6.5-2.7-13.5-4.2-21-4.2-30.5 0-55.2 24.7-55.2 55.2 0 2.6.2 5.1.6 7.5 3.6-26.9 26.6-47.6 54.6-47.6z"/></g><path id="XMLID_45_" class="st3" d="M360.2 458.8c5.4 13.7 20.9 20.4 34.6 15s20.4-20.9 15-34.6-44.4-39.8-44.4-39.8-10.6 45.7-5.2 59.4z"/><path id="XMLID_44_" class="st3" d="M119 458.8c5.4 13.7 20.9 20.4 34.6 15 13.7-5.4 20.4-20.9 15-34.6s-44.4-39.8-44.4-39.8-10.6 45.7-5.2 59.4z"/><path id="XMLID_41_" class="st3" d="M239.6 478.8c5.4 13.7 20.9 20.4 34.6 15s20.4-20.9 15-34.6-44.4-39.8-44.4-39.8-10.6 45.7-5.2 59.4z"/></svg>