<svg version="1.1" id="Layer_1" xmlns="http://www.w3.org/2000/svg" x="0" y="0" viewBox="0 0 512 512" xml:space="preserve"><style>.st11{fill:#bec6d2}.st14{fill-rule:evenodd;clip-rule:evenodd;fill:#00adee}</style><g id="XMLID_27_"><linearGradient id="XMLID_2_" gradientUnits="userSpaceOnUse" x1="107.184" y1="494.264" x2="107.184" y2="323.614" gradientTransform="scale(1 -1) rotate(-17.326 -1662.28 52.307)"><stop offset="0" stop-color="#feda00"/><stop offset="1" stop-color="#e2a025"/></linearGradient><circle id="XMLID_496_" cx="133.1" cy="134.2" r="85.3" fill="url(#XMLID_2_)"/><linearGradient id="XMLID_3_" gradientUnits="userSpaceOnUse" x1="186.554" y1="505.409" x2="186.554" y2="470.582" gradientTransform="scale(1 -1) rotate(-17.326 -1662.28 52.307)"><stop offset="0" stop-color="#feda00"/><stop offset="1" stop-color="#e7a423"/></linearGradient><path id="XMLID_495_" d="M250.5 72.9c-2.6-5-8.8-6.9-13.8-4.3l-18.1 9.5c-5 2.6-6.9 8.8-4.3 13.8 2.6 5 8.8 6.9 13.8 4.3l18.1-9.5c5-2.6 6.9-8.8 4.3-13.8z" fill="url(#XMLID_3_)"/><linearGradient id="XMLID_4_" gradientUnits="userSpaceOnUse" x1="27.879" y1="346.706" x2="27.879" y2="311.879" gradientTransform="scale(1 -1) rotate(-17.326 -1662.28 52.307)"><stop offset="0" stop-color="#feda00"/><stop offset="1" stop-color="#e7a423"/></linearGradient><path id="XMLID_494_" d="M51.8 177.1c-2.6-5-8.8-6.9-13.8-4.3l-18.1 9.5c-5 2.6-6.9 8.8-4.3 13.8s8.8 6.9 13.8 4.3l18.1-9.5c4.9-2.6 6.9-8.8 4.3-13.8z" fill="url(#XMLID_4_)"/><linearGradient id="XMLID_5_" gradientUnits="userSpaceOnUse" x1="219.463" y1="418.85" x2="219.463" y2="398.449" gradientTransform="scale(1 -1) rotate(-17.326 -1662.28 52.307)"><stop offset="0" stop-color="#feda00"/><stop offset="1" stop-color="#e7a423"/></linearGradient><path id="XMLID_492_" d="M259.7 174c1.7-5.4-1.3-11.1-6.7-12.8l-19.5-6.1c-5.4-1.7-11.1 1.3-12.8 6.7s1.3 11.1 6.7 12.8l19.5 6.1c5.4 1.7 11.1-1.3 12.8-6.7z" fill="url(#XMLID_5_)"/><linearGradient id="XMLID_6_" gradientUnits="userSpaceOnUse" x1="-4.965" y1="418.837" x2="-4.965" y2="398.418" gradientTransform="scale(1 -1) rotate(-17.326 -1662.28 52.307)"><stop offset="0" stop-color="#feda00"/><stop offset="1" stop-color="#e7a423"/></linearGradient><path id="XMLID_491_" d="M45.4 107.2c1.7-5.4-1.3-11.1-6.7-12.8l-19.5-6.1C13.9 86.6 8.1 89.6 6.5 95c-1.7 5.4 1.3 11.1 6.7 12.8l19.5 6.1c5.3 1.6 11-1.3 12.7-6.7z" fill="url(#XMLID_6_)"/><linearGradient id="XMLID_7_" gradientUnits="userSpaceOnUse" x1="27.963" y1="505.399" x2="27.963" y2="470.572" gradientTransform="scale(1 -1) rotate(-17.326 -1662.28 52.307)"><stop offset="0" stop-color="#feda00"/><stop offset="1" stop-color="#e7a423"/></linearGradient><path id="XMLID_489_" d="M71.5 17.1c-5 2.6-6.9 8.8-4.3 13.8L76.7 49c2.6 5 8.8 6.9 13.8 4.3s6.9-8.8 4.3-13.8l-9.5-18.1c-2.7-5-8.8-7-13.8-4.3z" fill="url(#XMLID_7_)"/><linearGradient id="XMLID_8_" gradientUnits="userSpaceOnUse" x1="186.613" y1="346.718" x2="186.613" y2="311.891" gradientTransform="scale(1 -1) rotate(-17.326 -1662.28 52.307)"><stop offset="0" stop-color="#feda00"/><stop offset="1" stop-color="#e7a423"/></linearGradient><path id="XMLID_477_" d="M175.7 215.8c-5 2.6-6.9 8.8-4.3 13.8l9.5 18.1c2.6 5 8.8 6.9 13.8 4.3s6.9-8.8 4.3-13.8l-9.5-18.1c-2.6-5-8.8-6.9-13.8-4.3z" fill="url(#XMLID_8_)"/><linearGradient id="XMLID_9_" gradientUnits="userSpaceOnUse" x1="107.284" y1="316.829" x2="107.284" y2="276.028" gradientTransform="scale(1 -1) rotate(-17.326 -1662.28 52.307)"><stop offset="0" stop-color="#feda00"/><stop offset="1" stop-color="#e7a423"/></linearGradient><path id="XMLID_475_" d="M93.6 261.1c5.4 1.7 11.1-1.3 12.8-6.7l6.1-19.5c1.7-5.4-1.3-11.1-6.7-12.8-5.4-1.7-11.1 1.3-12.8 6.7l-6.1 19.5c-1.7 5.4 1.3 11.1 6.7 12.8z" fill="url(#XMLID_9_)"/><linearGradient id="XMLID_10_" gradientUnits="userSpaceOnUse" x1="107.262" y1="541.275" x2="107.262" y2="500.475" gradientTransform="scale(1 -1) rotate(-17.326 -1662.28 52.307)"><stop offset="0" stop-color="#feda00"/><stop offset="1" stop-color="#e7a423"/></linearGradient><path id="XMLID_474_" d="M160.4 46.9c5.4 1.7 11.1-1.3 12.8-6.7l6.1-19.5c1.7-5.4-1.3-11.1-6.7-12.8s-11.1 1.3-12.8 6.7l-6.1 19.5c-1.7 5.4 1.3 11.1 6.7 12.8z" fill="url(#XMLID_10_)"/><path id="XMLID_470_" d="M129.3 219.1c22.1.7 47.7-7.3 62.9-24-16.2 8.3-37.4 18-61.7 17.2s-37.3-6.4-50.8-12.4c11.2 9.2 27.2 18.5 49.6 19.2z" opacity=".5" fill="#d58128"/><path id="XMLID_469_" d="M136.8 48.2c-21.9-.7-47.2 7.3-62.2 24 16-8.3 37-18 61.1-17.3 24.1.8 36.8 6.4 50.2 12.4-11.2-9.1-26.9-18.4-49.1-19.1z" opacity=".2" fill="#d58128"/></g><g id="XMLID_78_"><path id="XMLID_637_" class="st11" d="M416.7 177.4c-12 0-23.5 2.5-34 6.8C359.1 138 311.5 106 256 106s-103.1 32-126.7 78.2c-10.5-4.3-21.9-6.8-34-6.8-49.3 0-89.3 40-89.3 89.3S46 356 95.3 356c19.1 0 36.8-6.1 51.3-16.4 26.2 31.6 65.2 52.1 109.4 52.1s83.2-20.5 109.4-52.1c14.5 10.2 32.2 16.4 51.3 16.4 49.3 0 89.3-40 89.3-89.3s-40-89.3-89.3-89.3z"/><path id="XMLID_636_" d="M267.8 254.6c-96.2-9.7-186.3 3.7-257.5 33.7 8.9 40 44.5 69.9 87.1 69.9 19.1 0 36.8-6.1 51.3-16.4 26.2 31.6 65.2 52.1 109.4 52.1s83.2-20.5 109.4-52.1c14.5 10.2 32.2 16.4 51.3 16.4 28.6 0 54-13.5 70.4-34.5-60.6-35.4-136.9-60.6-221.4-69.1z" opacity=".05" fill="#a7a9ac"/><path id="XMLID_635_" d="M416.7 191.7c-12 0-23.5 2.5-34 6.8-23.7-46.2-71.2-78.2-126.7-78.2s-103.1 32-126.7 78.2c-10.5-4.3-21.9-6.8-34-6.8C46 191.7 6 231.7 6 281s40 89.3 89.3 89.3c19.1 0 36.8-6.1 51.3-16.4C172.8 385.5 211.8 406 256 406s83.2-20.5 109.4-52.1c14.5 10.2 32.2 16.4 51.3 16.4 49.3 0 89.3-40 89.3-89.3s-40-89.3-89.3-89.3z" fill="#d3dee2"/><path id="XMLID_541_" class="st11" d="M156.2 247.5c7.5 0 14.5 1.5 21 4.2 14.6-28.6 44-48.3 78.3-48.3s63.7 19.8 78.3 48.3c6.5-2.7 13.6-4.2 21-4.2 27.9 0 50.9 20.7 54.6 47.6.3-2.5.6-5 .6-7.5 0-30.5-24.7-55.2-55.2-55.2-7.4 0-14.5 1.5-21 4.2-14.6-28.6-44-48.3-78.3-48.3s-63.7 19.8-78.3 48.3c-6.5-2.7-13.5-4.2-21-4.2-30.5 0-55.2 24.7-55.2 55.2 0 2.6.2 5.1.6 7.5 3.6-26.9 26.6-47.6 54.6-47.6z"/></g><path id="XMLID_45_" class="st14" d="M360.2 458.8c5.4 13.7 20.9 20.4 34.6 15 13.7-5.4 20.4-20.9 15-34.6-5.4-13.7-44.4-39.8-44.4-39.8s-10.6 45.7-5.2 59.4z"/><path id="XMLID_44_" class="st14" d="M119 458.8c5.4 13.7 20.9 20.4 34.6 15 13.7-5.4 20.4-20.9 15-34.6-5.4-13.7-44.4-39.8-44.4-39.8s-10.6 45.7-5.2 59.4z"/><path id="XMLID_41_" class="st14" d="M239.6 478.8c5.4 13.7 20.9 20.4 34.6 15 13.7-5.4 20.4-20.9 15-34.6-5.4-13.7-44.4-39.8-44.4-39.8s-10.6 45.7-5.2 59.4z"/></svg>