<svg version="1.1" id="Layer_1" xmlns="http://www.w3.org/2000/svg" x="0" y="0" viewBox="0 0 512 512" xml:space="preserve"><style>.st1{fill:#00aeef}.st2{fill:#bec6d2}</style><linearGradient id="XMLID_2_" gradientUnits="userSpaceOnUse" x1="1194.124" y1="223.8" x2="1194.124" y2="1" gradientTransform="rotate(180 719.987 256)"><stop offset="0" stop-color="#f8f6c3"/><stop offset=".022" stop-color="#f9f0b1"/><stop offset=".087" stop-color="#fbe684"/><stop offset=".148" stop-color="#fdde5b"/><stop offset=".202" stop-color="#fed935"/><stop offset=".247" stop-color="#fed616"/><stop offset=".278" stop-color="#fed504"/><stop offset=".388" stop-color="#fdd209"/><stop offset=".512" stop-color="#f9c713"/><stop offset=".644" stop-color="#f3b61b"/><stop offset=".78" stop-color="#ec9e21"/><stop offset=".918" stop-color="#e48225"/><stop offset="1" stop-color="#df6e26"/></linearGradient><path id="XMLID_287_" fill="url(#XMLID_2_)" d="M309.7 405.1l-48.1 14 14.8 91.9L182 394l48.1-13.9-14.9-91.9z"/><path id="XMLID_67_" class="st1" d="M103 456.7c5.6 14.3 21.7 21.2 36 15.6s21.2-21.7 15.6-36-46.2-41.4-46.2-41.4-11 47.5-5.4 61.8z"/><path id="XMLID_38_" class="st1" d="M373 456.6c5.6 14.3 21.7 21.2 36 15.6s21.2-21.7 15.6-36-46.2-41.4-46.2-41.4-11 47.6-5.4 61.8z"/><g id="XMLID_78_"><path id="XMLID_637_" class="st2" d="M416.7 177.4c-12 0-23.5 2.5-34 6.8C359.1 138 311.5 106 256 106s-103.1 32-126.7 78.2c-10.5-4.3-21.9-6.8-34-6.8-49.3 0-89.3 40-89.3 89.3S46 356 95.3 356c19.1 0 36.8-6.1 51.3-16.4 26.2 31.6 65.2 52.1 109.4 52.1s83.2-20.5 109.4-52.1c14.5 10.2 32.2 16.4 51.3 16.4 49.3 0 89.3-40 89.3-89.3s-40-89.3-89.3-89.3z"/><path id="XMLID_636_" d="M267.8 254.6c-96.2-9.7-186.3 3.7-257.5 33.7 8.9 40 44.5 69.9 87.1 69.9 19.1 0 36.8-6.1 51.3-16.4 26.2 31.6 65.2 52.1 109.4 52.1s83.2-20.5 109.4-52.1c14.5 10.2 32.2 16.4 51.3 16.4 28.6 0 54-13.5 70.4-34.5-60.6-35.4-136.9-60.6-221.4-69.1z" opacity=".05" fill="#a7a9ac"/><path id="XMLID_635_" d="M416.7 191.7c-12 0-23.5 2.5-34 6.8-23.7-46.2-71.2-78.2-126.7-78.2s-103.1 32-126.7 78.2c-10.5-4.3-21.9-6.8-34-6.8C46 191.7 6 231.7 6 281s40 89.3 89.3 89.3c19.1 0 36.8-6.1 51.3-16.4C172.8 385.5 211.8 406 256 406s83.2-20.5 109.4-52.1c14.5 10.2 32.2 16.4 51.3 16.4 49.3 0 89.3-40 89.3-89.3s-40-89.3-89.3-89.3z" fill="#d3dee2"/><path id="XMLID_541_" class="st2" d="M156.2 247.5c7.5 0 14.5 1.5 21 4.2 14.6-28.6 44-48.3 78.3-48.3s63.7 19.8 78.3 48.3c6.5-2.7 13.6-4.2 21-4.2 27.9 0 50.9 20.7 54.6 47.6.3-2.5.6-5 .6-7.5 0-30.5-24.7-55.2-55.2-55.2-7.4 0-14.5 1.5-21 4.2-14.6-28.6-44-48.3-78.3-48.3s-63.7 19.8-78.3 48.3c-6.5-2.7-13.5-4.2-21-4.2-30.5 0-55.2 24.7-55.2 55.2 0 2.6.2 5.1.6 7.5 3.6-26.9 26.6-47.6 54.6-47.6z"/></g></svg>