<svg version="1.1" id="Layer_1" xmlns="http://www.w3.org/2000/svg" x="0" y="0" viewBox="0 0 512 512" xml:space="preserve"><style>.st0{fill:#bec6d2}</style><g id="XMLID_78_"><path id="XMLID_637_" class="st0" d="M416.7 177.4c-12 0-23.5 2.5-34 6.8C359.1 138 311.5 106 256 106s-103.1 32-126.7 78.2c-10.5-4.3-21.9-6.8-34-6.8-49.3 0-89.3 40-89.3 89.3S46 356 95.3 356c19.1 0 36.8-6.1 51.3-16.4 26.2 31.6 65.2 52.1 109.4 52.1s83.2-20.5 109.4-52.1c14.5 10.2 32.2 16.4 51.3 16.4 49.3 0 89.3-40 89.3-89.3s-40-89.3-89.3-89.3z"/><path id="XMLID_636_" d="M267.8 254.6c-96.2-9.7-186.3 3.7-257.5 33.7 8.9 40 44.5 69.9 87.1 69.9 19.1 0 36.8-6.1 51.3-16.4 26.2 31.6 65.2 52.1 109.4 52.1s83.2-20.5 109.4-52.1c14.5 10.2 32.2 16.4 51.3 16.4 28.6 0 54-13.5 70.4-34.5-60.6-35.4-136.9-60.6-221.4-69.1z" opacity=".05" fill="#a7a9ac"/><path id="XMLID_635_" d="M416.7 191.7c-12 0-23.5 2.5-34 6.8-23.7-46.2-71.2-78.2-126.7-78.2s-103.1 32-126.7 78.2c-10.5-4.3-21.9-6.8-34-6.8C46 191.7 6 231.7 6 281s40 89.3 89.3 89.3c19.1 0 36.8-6.1 51.3-16.4C172.8 385.5 211.8 406 256 406s83.2-20.5 109.4-52.1c14.5 10.2 32.2 16.4 51.3 16.4 49.3 0 89.3-40 89.3-89.3s-40-89.3-89.3-89.3z" fill="#d3dee2"/><path id="XMLID_541_" class="st0" d="M156.2 247.5c7.5 0 14.5 1.5 21 4.2 14.6-28.6 44-48.3 78.3-48.3s63.7 19.8 78.3 48.3c6.5-2.7 13.6-4.2 21-4.2 27.9 0 50.9 20.7 54.6 47.6.3-2.5.6-5 .6-7.5 0-30.5-24.7-55.2-55.2-55.2-7.4 0-14.5 1.5-21 4.2-14.6-28.6-44-48.3-78.3-48.3s-63.7 19.8-78.3 48.3c-6.5-2.7-13.5-4.2-21-4.2-30.5 0-55.2 24.7-55.2 55.2 0 2.6.2 5.1.6 7.5 3.6-26.9 26.6-47.6 54.6-47.6z"/></g><radialGradient id="XMLID_3_" cx="375.5" cy="91.6" r="32" gradientTransform="matrix(1 0 0 -1 0 512)" gradientUnits="userSpaceOnUse"><stop offset="0" stop-color="#ceecfb"/><stop offset="1" stop-color="#e1f3fc"/></radialGradient><path id="XMLID_215_" d="M403 415.9h-16.7l11.8-11.8c1.7-1.7 1.7-4.6 0-6.3-1.7-1.7-4.6-1.7-6.3 0L380 409.6v-16.7c0-2.5-2-4.5-4.5-4.5s-4.5 2-4.5 4.5v16.7l-11.8-11.8c-1.7-1.7-4.6-1.7-6.3 0-1.7 1.7-1.7 4.6 0 6.3l11.8 11.8H348c-2.5 0-4.5 2-4.5 4.5s2 4.5 4.5 4.5h16.7l-11.8 11.8c-1.7 1.7-1.7 4.6 0 6.3 1.7 1.7 4.6 1.7 6.3 0l11.8-11.8v16.7c0 2.5 2 4.5 4.5 4.5s4.5-2 4.5-4.5v-16.7l11.8 11.8c1.7 1.7 4.6 1.7 6.3 0 1.7-1.7 1.7-4.6 0-6.3l-11.8-11.8H403c2.5 0 4.5-2 4.5-4.5s-2-4.5-4.5-4.5z" fill="url(#XMLID_3_)"/><radialGradient id="XMLID_4_" cx="129.5" cy="87.171" r="31.965" gradientTransform="matrix(1 0 0 -1 0 512)" gradientUnits="userSpaceOnUse"><stop offset="0" stop-color="#ceecfb"/><stop offset="1" stop-color="#e1f3fc"/></radialGradient><path id="XMLID_213_" d="M157 420.4h-16.7l11.8-11.8c1.7-1.7 1.7-4.6 0-6.3-1.7-1.7-4.6-1.7-6.3 0L134 414.1v-16.7c0-2.5-2-4.5-4.5-4.5s-4.5 2-4.5 4.5v16.7l-11.8-11.8c-1.7-1.7-4.6-1.7-6.3 0-1.7 1.7-1.7 4.6 0 6.3l11.8 11.8H102c-2.5 0-4.5 2-4.5 4.5s2 4.5 4.5 4.5h16.7l-11.8 11.8c-1.7 1.7-1.7 4.6 0 6.3 1.7 1.7 4.6 1.7 6.3 0l11.8-11.8v16.7c0 2.5 2 4.5 4.5 4.5s4.5-2 4.5-4.5v-16.7l11.8 11.8c1.7 1.7 4.6 1.7 6.3 0s1.7-4.6 0-6.3l-11.8-11.8H157c2.5 0 4.5-2 4.5-4.5s-2.1-4.5-4.5-4.5z" fill="url(#XMLID_4_)"/><radialGradient id="XMLID_5_" cx="256.5" cy="57.171" r="31.965" gradientTransform="matrix(1 0 0 -1 0 512)" gradientUnits="userSpaceOnUse"><stop offset="0" stop-color="#ceecfb"/><stop offset="1" stop-color="#e1f3fc"/></radialGradient><path id="XMLID_1_" d="M284 450.4h-16.7l11.8-11.8c1.7-1.7 1.7-4.6 0-6.3-1.7-1.7-4.6-1.7-6.3 0L261 444.1v-16.7c0-2.5-2-4.5-4.5-4.5s-4.5 2-4.5 4.5v16.7l-11.8-11.8c-1.7-1.7-4.6-1.7-6.3 0s-1.7 4.6 0 6.3l11.8 11.8H229c-2.5 0-4.5 2-4.5 4.5s2 4.5 4.5 4.5h16.7l-11.8 11.8c-1.7 1.7-1.7 4.6 0 6.3 1.7 1.7 4.6 1.7 6.3 0l11.8-11.8v16.7c0 2.5 2 4.5 4.5 4.5s4.5-2 4.5-4.5v-16.7l11.8 11.8c1.7 1.7 4.6 1.7 6.3 0s1.7-4.6 0-6.3l-11.8-11.8H284c2.5 0 4.5-2 4.5-4.5s-2.1-4.5-4.5-4.5z" fill="url(#XMLID_5_)"/></svg>