<svg width="18" height="22" viewBox="0 0 18 22" fill="none" xmlns="http://www.w3.org/2000/svg">
<path d="M9 3.1L4.05 8.05C3.07111 9.029 2.40449 10.2763 2.13445 11.6341C1.86442 12.992 2.00308 14.3994 2.53292 15.6784C3.06275 16.9575 3.95996 18.0507 5.11109 18.8198C6.26222 19.589 7.61557 19.9995 9 19.9995C10.3844 19.9995 11.7378 19.589 12.8889 18.8198C14.04 18.0507 14.9373 16.9575 15.4671 15.6784C15.9969 14.3994 16.1356 12.992 15.8656 11.6341C15.5955 10.2763 14.9289 9.029 13.95 8.05L9 3.1ZM9 0.272003L15.364 6.636C16.6227 7.89468 17.4798 9.49833 17.8271 11.2442C18.1743 12.99 17.9961 14.7996 17.3149 16.4441C16.6337 18.0886 15.4802 19.4942 14.0001 20.4832C12.5201 21.4721 10.78 21.9999 9 21.9999C7.21998 21.9999 5.47992 21.4721 3.99988 20.4832C2.51984 19.4942 1.36629 18.0886 0.685099 16.4441C0.00390685 14.7996 -0.17433 12.99 0.172928 11.2442C0.520187 9.49833 1.37734 7.89468 2.636 6.636L9 0.272003Z" fill="white"/>
</svg>
